<svg width="16" height="16" viewBox="0 0 16 16" fill="none" xmlns="http://www.w3.org/2000/svg">
<g clip-path="url(#clip0_1_70)">
<path fill-rule="evenodd" clip-rule="evenodd" d="M11.99 6.99002C12.54 6.99002 12.99 6.54002 12.99 5.99002C12.99 5.44002 12.54 4.99002 11.99 4.99002C11.44 4.99002 10.99 5.44002 10.99 5.99002C10.99 6.54002 11.44 6.99002 11.99 6.99002ZM14.99 1.99002H0.98999C0.43999 1.99002 -0.0100098 2.44002 -0.0100098 2.99002V12.99C-0.0100098 13.54 0.43999 13.99 0.98999 13.99H14.99C15.54 13.99 15.99 13.54 15.99 12.99V2.99002C15.99 2.44002 15.54 1.99002 14.99 1.99002ZM13.99 10.99L8.98999 7.99002L7.98999 9.99002L4.98999 5.99002L1.98999 10.99V3.99002H13.99V10.99Z" fill="#495567"/>
</g>
<defs>
<clipPath id="clip0_1_70">
<rect width="16" height="16" fill="white"/>
</clipPath>
</defs>
</svg>
